<svg xmlns="http://www.w3.org/2000/svg" xmlns:xlink="http://www.w3.org/1999/xlink" xmlns:xodm="http://www.corel.com/coreldraw/odm/2003" xml:space="preserve" width="100%" height="100%" fill-rule="evenodd" clip-rule="evenodd" viewBox="0 0 15028.32 5654.6"> <g id="Camada_x0020_1">  <metadata id="CorelCorpID_0Corel-Layer"></metadata>  <path fill="#FBB351" fill-rule="nonzero" d="M2739.24 2395.88c1238.68,-860.36 0,-2395.88 0,-2395.88 0,0 -1238.72,1535.52 0,2395.88z"></path>  <path fill="#F47E54" fill-rule="nonzero" d="M2069.6 2678.56c236.8,-1274.28 -1432.64,-1453.12 -1432.64,-1453.12 0,0 166.88,1683.68 1432.64,1453.12z"></path>  <path fill="#30B2BC" fill-rule="nonzero" d="M1727.8 3365.8c-439.8,-1032.88 -1727.8,-349.4 -1727.8,-349.4 0,0 926.68,1131.32 1727.8,349.4z"></path>  <path fill="#5F985C" fill-rule="nonzero" d="M1821.4 3953.68c-800.32,-345.28 -1163.36,739.84 -1163.36,739.84 0,0 1128.08,136.84 1163.36,-739.84z"></path>  <path fill="#4A4A48" fill-rule="nonzero" d="M3444.92 4562.88c-456.2,-32.52 -682.12,74.28 -682.12,301.92 0,148.64 101.4,255.52 281.12,255.52 170.56,0 322.72,-79 401,-185.76l0 -371.68zm654.52 -752.6l0 1049.88c0,148.68 55.36,213.72 179.76,213.72l73.8 0 0 483.12c-110.64,69.76 -230.44,88.28 -345.68,88.28 -248.96,0 -391.8,-120.76 -470.2,-283.32l-18.4 0c-96.76,130 -290.4,292.64 -663.8,292.64 -507.04,0 -769.8,-348.44 -769.8,-724.72 0,-603.88 539.4,-882.68 1359.8,-840.92l0 -204.32c0,-292.72 -161.24,-380.92 -373.28,-380.92 -248.96,0 -382.64,143.96 -447.12,297.28l-493.2 -367.04c101.32,-143.96 359.48,-492.4 935.64,-492.4 663.8,0 1032.52,232.28 1032.52,868.72l-0.04 0z"></path>  <path fill="#4A4A48" fill-rule="nonzero" d="M6948 5612.76l-695.96 0 0 -1667.76c0,-269.44 -124.48,-427.4 -359.56,-427.4 -202.84,0 -368.8,120.76 -447.08,311.28l0 1783.88 -696.04 0 0 -2624.8 543.88 0 138.36 246.24 18.4 0c156.68,-190.44 428.64,-311.24 700.64,-311.24 507.04,0 797.36,283.4 797.36,873.36l0 1816.44 0 0z"></path>  <path fill="#4A4A48" fill-rule="nonzero" d="M9012.96 4878.76l0 -1245.08c-64.4,-51.08 -216.6,-92.88 -345.68,-92.88 -285.76,0 -534.6,125.48 -534.6,836.24 0,510.96 184.36,724.68 451.64,724.68 193.64,0 331.96,-88.28 428.64,-222.96zm-18.4 -2787.36l691.4 0 0 3521.36 -543.88 0 -110.56 -213.72 -18.56 0c-73.68,74.36 -285.72,255.52 -635.96,255.52 -548.6,0 -949.56,-362.36 -949.56,-1217.12 0,-1105.64 590,-1463.36 1138.44,-1463.36 244.36,0 345.72,32.48 428.68,55.68l0 -938.36z"></path>  <path fill="#4A4A48" fill-rule="nonzero" d="M11529.8 4562.88c-456.24,-32.52 -682.12,74.28 -682.12,301.92 0,148.64 101.4,255.52 281.12,255.52 170.6,0 322.68,-79 401,-185.76l0 -371.68zm654.56 -752.6l0 1049.88c0,148.68 55.36,213.72 179.72,213.72l73.76 0 0 483.12c-110.6,69.76 -230.4,88.28 -345.64,88.28 -248.92,0 -391.8,-120.76 -470.24,-283.32l-18.4 0c-96.72,130 -290.4,292.64 -663.8,292.64 -507,0 -769.76,-348.44 -769.76,-724.72 0,-603.88 539.36,-882.68 1359.8,-840.92l0 -204.32c0,-292.72 -161.2,-380.92 -373.28,-380.92 -249.04,0 -382.68,143.96 -447.16,297.28l-493.2 -367.04c101.36,-143.96 359.52,-492.4 935.72,-492.4 663.76,0 1032.48,232.28 1032.48,868.72l0 0z"></path>  <path fill="#4A4A48" fill-rule="nonzero" d="M13650.16 4242.28c96.72,343.84 133.56,506.4 170.52,710.8l18.4 0c27.64,-195.08 64.44,-366.96 156.72,-710.8l336.56 -1254.32 695.96 0 -820.52 2624.8 -778.92 0 -885.08 -2624.8 751.4 0 354.96 1254.32 0 0z"></path> </g></svg>